<svg version="1.1" id="Layer_1" xmlns="http://www.w3.org/2000/svg" xmlns:xlink="http://www.w3.org/1999/xlink" x="0px" y="0px"
	 width="100%" viewBox="0 0 512 447" enable-background="new 0 0 512 447" xml:space="preserve">
<path fill="#000000" opacity="1.000000" stroke="none" 
	d="
M340.000000,448.000000 
	C226.666672,448.000000 113.833336,448.000000 1.000000,448.000000 
	C1.000000,299.000000 1.000000,150.000000 1.000000,1.000000 
	C171.666672,1.000000 342.333344,1.000000 513.000000,1.000000 
	C513.000000,150.000000 513.000000,299.000000 513.000000,448.000000 
	C455.500000,448.000000 398.000000,448.000000 340.000000,448.000000 
M174.500015,365.904419 
	C211.320877,365.904419 248.141754,365.904449 284.962616,365.904449 
	C298.922119,365.904449 298.922638,365.904358 297.147064,351.866211 
	C297.128571,351.720001 296.999603,351.587769 296.742340,351.126556 
	C291.726257,350.431641 286.396423,350.082581 281.255341,348.907745 
	C266.128540,345.450958 258.069885,340.625153 258.085266,322.368042 
	C258.104462,299.542236 258.158630,276.716034 258.022827,253.891022 
	C258.000793,250.188309 259.155731,248.939072 262.881500,249.015701 
	C272.873962,249.221237 282.886993,249.419739 292.867584,249.018219 
	C319.732727,247.937408 345.785675,243.488022 369.142059,228.967133 
	C400.087738,209.727875 408.989410,176.115448 402.329102,145.691086 
	C397.540894,123.818710 382.047943,111.380928 361.794556,104.044426 
	C341.600403,96.729385 320.527893,95.209694 299.353699,95.112366 
	C251.203934,94.891014 203.052444,95.040169 154.901642,95.053322 
	C153.639175,95.053665 152.376740,95.222084 151.184235,95.307129 
	C151.184235,100.433952 151.184235,105.188744 151.184235,109.901779 
	C157.288605,111.299652 163.169159,112.451790 168.942123,114.004097 
	C187.495941,118.993073 190.173752,122.533173 190.180481,141.866043 
	C190.201431,202.012894 190.210464,262.159760 190.138916,322.306519 
	C190.133987,326.445007 189.725983,330.638000 188.971542,334.706635 
	C188.036499,339.749298 185.064056,343.667328 180.122955,345.297791 
	C175.268600,346.899567 170.224533,348.002960 165.196671,348.980042 
	C160.529373,349.887085 155.773575,350.338654 151.244019,350.964874 
	C151.244019,356.199432 151.244019,360.941833 151.244019,365.904419 
	C158.887238,365.904419 166.193634,365.904419 174.500015,365.904419 
z"/>
<path fill="#F6F6F6" opacity="1.000000" stroke="none" 
	d="
M174.000031,365.904419 
	C166.193634,365.904419 158.887238,365.904419 151.244019,365.904419 
	C151.244019,360.941833 151.244019,356.199432 151.244019,350.964874 
	C155.773575,350.338654 160.529373,349.887085 165.196671,348.980042 
	C170.224533,348.002960 175.268600,346.899567 180.122955,345.297791 
	C185.064056,343.667328 188.036499,339.749298 188.971542,334.706635 
	C189.725983,330.638000 190.133987,326.445007 190.138916,322.306519 
	C190.210464,262.159760 190.201431,202.012894 190.180481,141.866043 
	C190.173752,122.533173 187.495941,118.993073 168.942123,114.004097 
	C163.169159,112.451790 157.288605,111.299652 151.184235,109.901779 
	C151.184235,105.188744 151.184235,100.433952 151.184235,95.307129 
	C152.376740,95.222084 153.639175,95.053665 154.901642,95.053322 
	C203.052444,95.040169 251.203934,94.891014 299.353699,95.112366 
	C320.527893,95.209694 341.600403,96.729385 361.794556,104.044426 
	C382.047943,111.380928 397.540894,123.818710 402.329102,145.691086 
	C408.989410,176.115448 400.087738,209.727875 369.142059,228.967133 
	C345.785675,243.488022 319.732727,247.937408 292.867584,249.018219 
	C282.886993,249.419739 272.873962,249.221237 262.881500,249.015701 
	C259.155731,248.939072 258.000793,250.188309 258.022827,253.891022 
	C258.158630,276.716034 258.104462,299.542236 258.085266,322.368042 
	C258.069885,340.625153 266.128540,345.450958 281.255341,348.907745 
	C286.396423,350.082581 291.726257,350.431641 296.742340,351.126556 
	C296.999603,351.587769 297.128571,351.720001 297.147064,351.866211 
	C298.922638,365.904358 298.922119,365.904449 284.962616,365.904449 
	C248.141754,365.904449 211.320877,365.904419 174.000031,365.904419 
M258.084473,125.517258 
	C258.084717,158.989014 258.156769,192.461121 257.994385,225.932083 
	C257.974030,230.125992 259.181488,231.612991 263.337677,231.166901 
	C271.586151,230.281555 279.969330,230.233109 288.100800,228.758011 
	C308.599701,225.039352 322.353394,213.255981 327.576202,192.773148 
	C331.645447,176.814285 330.768250,160.711380 326.671509,144.876343 
	C323.091034,131.036621 314.435699,120.865486 300.699097,117.020515 
	C290.772369,114.241959 280.145203,113.509644 269.770050,112.910637 
	C258.114075,112.237663 258.084534,112.749222 258.084473,125.517258 
z"/>
<path fill="#020202" opacity="1.000000" stroke="none" 
	d="
M258.084473,125.021828 
	C258.084534,112.749222 258.114075,112.237663 269.770050,112.910637 
	C280.145203,113.509644 290.772369,114.241959 300.699097,117.020515 
	C314.435699,120.865486 323.091034,131.036621 326.671509,144.876343 
	C330.768250,160.711380 331.645447,176.814285 327.576202,192.773148 
	C322.353394,213.255981 308.599701,225.039352 288.100800,228.758011 
	C279.969330,230.233109 271.586151,230.281555 263.337677,231.166901 
	C259.181488,231.612991 257.974030,230.125992 257.994385,225.932083 
	C258.156769,192.461121 258.084717,158.989014 258.084473,125.021828 
z"/>
</svg>