<svg version="1.1" id="Layer_1" xmlns="http://www.w3.org/2000/svg" xmlns:xlink="http://www.w3.org/1999/xlink" x="0px" y="0px"
	 width="100%" viewBox="0 0 459 375" enable-background="new 0 0 459 375" xml:space="preserve">
<path fill="#FFFFFF" opacity="1.000000" stroke="none" 
	d="
M318.000000,376.000000 
	C212.000015,376.000000 106.500023,376.000000 1.000028,376.000000 
	C1.000019,251.000031 1.000019,126.000053 1.000009,1.000062 
	C153.999954,1.000041 306.999908,1.000041 459.999908,1.000021 
	C459.999939,125.999939 459.999939,250.999878 459.999969,375.999908 
	C412.833344,376.000000 365.666656,376.000000 318.000000,376.000000 
M203.500015,50.926239 
	C184.061722,50.926239 164.623413,50.926239 145.018616,50.926239 
	C145.018616,144.126190 145.018616,236.792099 145.018616,329.524048 
	C163.432922,329.524048 181.456314,329.524048 200.054993,329.524048 
	C200.054993,294.751801 200.054993,260.371735 200.054993,225.769730 
	C216.281509,225.769730 231.929489,225.837814 247.576645,225.751938 
	C265.812927,225.651871 283.759033,224.053024 300.661377,216.207260 
	C315.794617,209.182724 328.190277,198.861343 335.732056,184.124008 
	C348.419769,159.331024 349.828796,133.158051 341.593597,106.624321 
	C335.902100,88.286407 324.744995,74.124725 308.056061,64.264969 
	C291.773346,54.645226 273.950348,51.427448 255.471588,51.052162 
	C238.487228,50.707230 221.491013,50.945118 203.500015,50.926239 
z"/>
<path fill="#010101" opacity="1.000000" stroke="none" 
	d="
M204.000031,50.926239 
	C221.491013,50.945118 238.487228,50.707230 255.471588,51.052162 
	C273.950348,51.427448 291.773346,54.645226 308.056061,64.264969 
	C324.744995,74.124725 335.902100,88.286407 341.593597,106.624321 
	C349.828796,133.158051 348.419769,159.331024 335.732056,184.124008 
	C328.190277,198.861343 315.794617,209.182724 300.661377,216.207260 
	C283.759033,224.053024 265.812927,225.651871 247.576645,225.751938 
	C231.929489,225.837814 216.281509,225.769730 200.054993,225.769730 
	C200.054993,260.371735 200.054993,294.751801 200.054993,329.524048 
	C181.456314,329.524048 163.432922,329.524048 145.018616,329.524048 
	C145.018616,236.792099 145.018616,144.126190 145.018616,50.926239 
	C164.623413,50.926239 184.061722,50.926239 204.000031,50.926239 
M274.231232,101.139458 
	C269.750793,99.435211 265.336090,96.482269 260.778595,96.242470 
	C240.858109,95.194298 220.896255,94.930885 200.948624,94.413765 
	C200.702560,94.407387 200.445862,94.810966 200.163910,95.048676 
	C200.163910,123.923454 200.163910,152.819672 200.163910,181.636215 
	C218.022873,181.636215 235.519989,182.327530 252.935135,181.429489 
	C268.394775,180.632294 281.281036,174.237915 287.615997,158.771896 
	C290.902374,150.748764 291.415436,142.275787 290.906128,133.737213 
	C290.131470,120.750938 286.131256,109.320908 274.231232,101.139458 
z"/>
<path fill="#FEFEFE" opacity="1.000000" stroke="none" 
	d="
M274.523956,101.360123 
	C286.131256,109.320908 290.131470,120.750938 290.906128,133.737213 
	C291.415436,142.275787 290.902374,150.748764 287.615997,158.771896 
	C281.281036,174.237915 268.394775,180.632294 252.935135,181.429489 
	C235.519989,182.327530 218.022873,181.636215 200.163910,181.636215 
	C200.163910,152.819672 200.163910,123.923454 200.163910,95.048676 
	C200.445862,94.810966 200.702560,94.407387 200.948624,94.413765 
	C220.896255,94.930885 240.858109,95.194298 260.778595,96.242470 
	C265.336090,96.482269 269.750793,99.435211 274.523956,101.360123 
z"/>
</svg>